{
	"asset":{
		"generator":"Khronos glTF Blender I/O v3.5.30",
		"version":"2.0"
	},
	"scene":0,
	"scenes":[
		{
			"extras":{
				"scatter5":{
					"emitter":{}
				}
			},
			"name":"Scene",
			"nodes":[
				0,
				1,
				2
			]
		}
	],
	"nodes":[
		{
			"extras":{
				"scatter5":{
					"estimated_square_area":18.78908348083496
				}
			},
			"mesh":0,
			"name":"Cylinder",
			"rotation":[
				0.7071068286895752,
				0,
				0,
				0.7071068286895752
			],
			"scale":[
				0.07945668697357178,
				2.5891613960266113,
				0.07945668697357178
			]
		},
		{
			"extras":{
				"scatter5":{}
			},
			"mesh":1,
			"name":"Sphere",
			"rotation":[
				-0.5000000596046448,
				0.5,
				-0.4999999403953552,
				0.5000000596046448
			],
			"scale":[
				0.4125911593437195,
				0.4125911593437195,
				0.4125911593437195
			],
			"translation":[
				0,
				0,
				-2.6080164909362793
			]
		},
		{
			"extras":{
				"scatter5":{}
			},
			"mesh":2,
			"name":"Sphere.001",
			"rotation":[
				-0.5000000596046448,
				0.5,
				-0.4999999403953552,
				0.5000000596046448
			],
			"scale":[
				0.4125911593437195,
				0.4125911593437195,
				0.4125911593437195
			],
			"translation":[
				0,
				0,
				2.609555244445801
			]
		}
	],
	"materials":[
		{
			"doubleSided":true,
			"name":"Material.003",
			"pbrMetallicRoughness":{
				"baseColorFactor":[
					0.1468353569507599,
					0.1468353569507599,
					0.1468353569507599,
					1
				],
				"metallicFactor":0,
				"roughnessFactor":0.5
			}
		},
		{
			"doubleSided":true,
			"name":"Material.001",
			"pbrMetallicRoughness":{
				"baseColorFactor":[
					1,
					0.0073330337181687355,
					0,
					1
				],
				"metallicFactor":0,
				"roughnessFactor":0.5
			}
		},
		{
			"doubleSided":true,
			"name":"Material.002",
			"pbrMetallicRoughness":{
				"baseColorFactor":[
					0,
					0,
					0,
					1
				],
				"metallicFactor":0,
				"roughnessFactor":0.5
			}
		}
	],
	"meshes":[
		{
			"name":"Cylinder",
			"primitives":[
				{
					"attributes":{
						"POSITION":0,
						"TEXCOORD_0":1,
						"NORMAL":2
					},
					"indices":3,
					"material":0
				}
			]
		},
		{
			"name":"Cone",
			"primitives":[
				{
					"attributes":{
						"POSITION":4,
						"TEXCOORD_0":5,
						"NORMAL":6
					},
					"indices":7,
					"material":1
				}
			]
		},
		{
			"name":"Cone.001",
			"primitives":[
				{
					"attributes":{
						"POSITION":8,
						"TEXCOORD_0":9,
						"NORMAL":10
					},
					"indices":7,
					"material":2
				}
			]
		}
	],
	"accessors":[
		{
			"bufferView":0,
			"componentType":5126,
			"count":130,
			"max":[
				1,
				1,
				1
			],
			"min":[
				-1,
				-1,
				-1
			],
			"type":"VEC3"
		},
		{
			"bufferView":1,
			"componentType":5126,
			"count":130,
			"type":"VEC2"
		},
		{
			"bufferView":2,
			"componentType":5126,
			"count":130,
			"type":"VEC3"
		},
		{
			"bufferView":3,
			"componentType":5123,
			"count":372,
			"type":"SCALAR"
		},
		{
			"bufferView":4,
			"componentType":5126,
			"count":128,
			"max":[
				1,
				1,
				1
			],
			"min":[
				-1,
				-1,
				-1
			],
			"type":"VEC3"
		},
		{
			"bufferView":5,
			"componentType":5126,
			"count":128,
			"type":"VEC2"
		},
		{
			"bufferView":6,
			"componentType":5126,
			"count":128,
			"type":"VEC3"
		},
		{
			"bufferView":7,
			"componentType":5123,
			"count":186,
			"type":"SCALAR"
		},
		{
			"bufferView":8,
			"componentType":5126,
			"count":128,
			"max":[
				1,
				1,
				1
			],
			"min":[
				-1,
				-1,
				-1
			],
			"type":"VEC3"
		},
		{
			"bufferView":9,
			"componentType":5126,
			"count":128,
			"type":"VEC2"
		},
		{
			"bufferView":10,
			"componentType":5126,
			"count":128,
			"type":"VEC3"
		}
	],
	"bufferViews":[
		{
			"buffer":0,
			"byteLength":1560,
			"byteOffset":0,
			"target":34962
		},
		{
			"buffer":0,
			"byteLength":1040,
			"byteOffset":1560,
			"target":34962
		},
		{
			"buffer":0,
			"byteLength":1560,
			"byteOffset":2600,
			"target":34962
		},
		{
			"buffer":0,
			"byteLength":744,
			"byteOffset":4160,
			"target":34963
		},
		{
			"buffer":0,
			"byteLength":1536,
			"byteOffset":4904,
			"target":34962
		},
		{
			"buffer":0,
			"byteLength":1024,
			"byteOffset":6440,
			"target":34962
		},
		{
			"buffer":0,
			"byteLength":1536,
			"byteOffset":7464,
			"target":34962
		},
		{
			"buffer":0,
			"byteLength":372,
			"byteOffset":9000,
			"target":34963
		},
		{
			"buffer":0,
			"byteLength":1536,
			"byteOffset":9372,
			"target":34962
		},
		{
			"buffer":0,
			"byteLength":1024,
			"byteOffset":10908,
			"target":34962
		},
		{
			"buffer":0,
			"byteLength":1536,
			"byteOffset":11932,
			"target":34962
		}
	],
	"buffers":[
		{
			"byteLength":13468,
			"uri":"TangentMover-cb4075abf4bef8ae09facf229a3c5d61.bin"
		}
	]
}
