{
	"asset":{
		"generator":"Khronos glTF Blender I/O v4.0.44",
		"version":"2.0"
	},
	"scene":0,
	"scenes":[
		{
			"extras":{
				"scatter5":{
					"emitter":{},
					"operators":{
						"create_operators":{}
					}
				},
				"sun_pos_properties":{
					"show_surface":0,
					"show_analemmas":0,
					"show_north":0,
					"latitude":0.0,
					"day_of_year":63,
					"sun_object":{},
					"object_collection":{}
				},
				"timeme_vars":{
					"categories":[
						{
							"category_name":"ALL TIME",
							"category_time":1195.3631591796875,
							"category_time_str":"19 m 55 s"
						},
						{
							"category_name":"ACTIVE TIME",
							"category_time":982.5245971679688,
							"category_time_str":"16 m 22 s"
						},
						{
							"category_name":"WORK TIME",
							"category_time":969.293212890625,
							"category_time_str":"16 m 9 s"
						}
					]
				},
				"uuid":"7573dc94-58d3-4d9e-8916-6dee524aa042",
				"assets reported":{}
			},
			"name":"Scene",
			"nodes":[
				0
			]
		}
	],
	"nodes":[
		{
			"extras":{
				"scatter5":{
					"estimated_square_area":18.614431381225586
				}
			},
			"mesh":0,
			"name":"Circle"
		}
	],
	"materials":[
		{
			"doubleSided":true,
			"name":"Material.001",
			"pbrMetallicRoughness":{
				"baseColorFactor":[
					0,
					0,
					0,
					1
				],
				"metallicFactor":0,
				"roughnessFactor":0.5
			}
		},
		{
			"doubleSided":true,
			"name":"Material.002",
			"pbrMetallicRoughness":{
				"baseColorFactor":[
					0.02982589602470398,
					0.012776248157024384,
					0.0049353246577084064,
					1
				],
				"metallicFactor":0,
				"roughnessFactor":0.5
			}
		}
	],
	"meshes":[
		{
			"name":"Circle",
			"primitives":[
				{
					"attributes":{
						"POSITION":0,
						"NORMAL":1,
						"TEXCOORD_0":2,
						"TANGENT":3
					},
					"indices":4,
					"material":0
				},
				{
					"attributes":{
						"POSITION":5,
						"NORMAL":6,
						"TEXCOORD_0":7,
						"TANGENT":8
					},
					"indices":9,
					"material":1
				}
			]
		}
	],
	"accessors":[
		{
			"bufferView":0,
			"componentType":5126,
			"count":27713,
			"max":[
				1.9574100971221924,
				1.421557903289795,
				1.956422209739685
			],
			"min":[
				-1.957410454750061,
				0.031852349638938904,
				-1.9561008214950562
			],
			"type":"VEC3"
		},
		{
			"bufferView":1,
			"componentType":5126,
			"count":27713,
			"type":"VEC3"
		},
		{
			"bufferView":2,
			"componentType":5126,
			"count":27713,
			"type":"VEC2"
		},
		{
			"bufferView":3,
			"componentType":5126,
			"count":27713,
			"type":"VEC4"
		},
		{
			"bufferView":4,
			"componentType":5123,
			"count":163968,
			"type":"SCALAR"
		},
		{
			"bufferView":5,
			"componentType":5126,
			"count":14592,
			"max":[
				1.0213499069213867,
				0.3428328335285187,
				1.0132756233215332
			],
			"min":[
				-1.0213499069213867,
				0.03235342726111412,
				-1.007375717163086
			],
			"type":"VEC3"
		},
		{
			"bufferView":6,
			"componentType":5126,
			"count":14592,
			"type":"VEC3"
		},
		{
			"bufferView":7,
			"componentType":5126,
			"count":14592,
			"type":"VEC2"
		},
		{
			"bufferView":8,
			"componentType":5126,
			"count":14592,
			"type":"VEC4"
		},
		{
			"bufferView":9,
			"componentType":5123,
			"count":86016,
			"type":"SCALAR"
		}
	],
	"bufferViews":[
		{
			"buffer":0,
			"byteLength":332556,
			"byteOffset":0,
			"target":34962
		},
		{
			"buffer":0,
			"byteLength":332556,
			"byteOffset":332556,
			"target":34962
		},
		{
			"buffer":0,
			"byteLength":221704,
			"byteOffset":665112,
			"target":34962
		},
		{
			"buffer":0,
			"byteLength":443408,
			"byteOffset":886816,
			"target":34962
		},
		{
			"buffer":0,
			"byteLength":327936,
			"byteOffset":1330224,
			"target":34963
		},
		{
			"buffer":0,
			"byteLength":175104,
			"byteOffset":1658160,
			"target":34962
		},
		{
			"buffer":0,
			"byteLength":175104,
			"byteOffset":1833264,
			"target":34962
		},
		{
			"buffer":0,
			"byteLength":116736,
			"byteOffset":2008368,
			"target":34962
		},
		{
			"buffer":0,
			"byteLength":233472,
			"byteOffset":2125104,
			"target":34962
		},
		{
			"buffer":0,
			"byteLength":172032,
			"byteOffset":2358576,
			"target":34963
		}
	],
	"buffers":[
		{
			"byteLength":2530608,
			"uri":"temp2-b12d63aa534be8596a3a0d70e581e629.bin"
		}
	]
}
