{
	"asset":{
		"generator":"Khronos glTF Blender I/O v4.0.44",
		"version":"2.0"
	},
	"scene":0,
	"scenes":[
		{
			"extras":{
				"network_render":{},
				"NWBusyDrawing":"",
				"NWLazySource":"Noise Texture",
				"NWLazyTarget":"ColorRamp.001",
				"simplify_status":0,
				"scatter5":{
					"emitter":{},
					"operators":{
						"create_operators":{}
					}
				},
				"sun_pos_properties":{
					"show_surface":0,
					"show_analemmas":0,
					"show_north":0,
					"latitude":0.0,
					"day_of_year":63,
					"sun_object":{},
					"object_collection":{}
				},
				"timeme_vars":{
					"categories":[
						{
							"category_name":"ALL TIME",
							"category_time":1257.9561767578125,
							"category_time_str":"20 m 57 s"
						},
						{
							"category_name":"ACTIVE TIME",
							"category_time":499.2848815917969,
							"category_time_str":"8 m 19 s"
						},
						{
							"category_name":"WORK TIME",
							"category_time":486.73773193359375,
							"category_time_str":"8 m 6 s"
						}
					]
				},
				"uuid":"6ba85c30-cfe1-4164-921e-1b07818118e9",
				"assets reported":{}
			},
			"name":"Scene",
			"nodes":[
				0,
				5
			]
		}
	],
	"nodes":[
		{
			"extras":{
				"scatter5":{
					"estimated_square_area":1.023012399673462
				}
			},
			"mesh":0,
			"name":"Logo Black",
			"rotation":[
				0.6210072040557861,
				0.33815687894821167,
				-0.33815690875053406,
				0.6210071444511414
			],
			"scale":[
				0.10799980163574219,
				0.10799980163574219,
				0.10799979418516159
			],
			"translation":[
				0.2896449565887451,
				0.2781946659088135,
				0.17604291439056396
			]
		},
		{
			"extras":{
				"scatter5":{
					"estimated_square_area":7.206370830535889
				}
			},
			"mesh":1,
			"name":"Circle.003"
		},
		{
			"extras":{
				"scatter5":{}
			},
			"mesh":2,
			"name":"Cube.001",
			"rotation":[
				0.5660805106163025,
				0.3996283710002899,
				-0.3332977890968323,
				0.6393455862998962
			],
			"scale":[
				0.06414956599473953,
				0.06414955854415894,
				0.06414954364299774
			],
			"translation":[
				0.9254518747329712,
				0.38317519426345825,
				0.583293616771698
			]
		},
		{
			"extras":{
				"scatter5":{}
			},
			"mesh":3,
			"name":"Plane.002",
			"rotation":[
				0.6181668639183044,
				0.39492034912109375,
				-0.2253791093826294,
				0.6411800980567932
			],
			"scale":[
				0.24789585173130035,
				0.24789585173130035,
				0.24789580702781677
			],
			"translation":[
				0.9377527832984924,
				0.3945830464363098,
				0.5551553964614868
			]
		},
		{
			"extras":{
				"scatter5":{}
			},
			"mesh":4,
			"name":"Plane.004",
			"rotation":[
				-0.6166141033172607,
				0.38533684611320496,
				0.43326592445373535,
				0.5325253009796143
			],
			"scale":[
				-0.24789582192897797,
				-0.24789579212665558,
				-0.24789579212665558
			],
			"translation":[
				0.918567419052124,
				0.3544839024543762,
				0.6049076318740845
			]
		},
		{
			"children":[
				1,
				2,
				3,
				4
			],
			"extras":{
				"scatter5":{}
			},
			"mesh":5,
			"name":"Circle.002",
			"rotation":[
				0,
				-0.25262710452079773,
				0,
				0.9675637483596802
			],
			"scale":[
				0.33596450090408325,
				0.33596453070640564,
				0.33596450090408325
			],
			"translation":[
				0.009194497019052505,
				-0.019327640533447266,
				0.00311887264251709
			]
		}
	],
	"materials":[
		{
			"alphaMode":"BLEND",
			"doubleSided":true,
			"name":"Logo Black",
			"pbrMetallicRoughness":{
				"baseColorTexture":{
					"index":0
				},
				"metallicFactor":0,
				"roughnessFactor":0.5
			}
		},
		{
			"doubleSided":true,
			"name":"Top-Hat-Strap",
			"pbrMetallicRoughness":{
				"baseColorFactor":[
					0,
					0,
					0,
					1
				],
				"metallicFactor":0
			}
		},
		{
			"doubleSided":true,
			"name":"Top-Hat-BLack",
			"pbrMetallicRoughness":{
				"baseColorFactor":[
					0,
					0,
					0,
					1
				],
				"metallicFactor":0,
				"roughnessFactor":0.5
			}
		}
	],
	"meshes":[
		{
			"name":"Logo Black",
			"primitives":[
				{
					"attributes":{
						"POSITION":0,
						"NORMAL":1,
						"TEXCOORD_0":2,
						"TANGENT":3
					},
					"indices":4,
					"material":0
				}
			]
		},
		{
			"name":"Circle.003",
			"primitives":[
				{
					"attributes":{
						"POSITION":5,
						"NORMAL":6,
						"TEXCOORD_0":7,
						"TANGENT":8
					},
					"indices":9,
					"material":1
				}
			]
		},
		{
			"name":"Cube.000",
			"primitives":[
				{
					"attributes":{
						"POSITION":10,
						"NORMAL":11
					},
					"indices":12,
					"material":1
				}
			]
		},
		{
			"name":"Plane.002",
			"primitives":[
				{
					"attributes":{
						"POSITION":13,
						"NORMAL":14
					},
					"indices":15,
					"material":1
				}
			]
		},
		{
			"name":"Plane.003",
			"primitives":[
				{
					"attributes":{
						"POSITION":16,
						"NORMAL":17
					},
					"indices":18,
					"material":1
				}
			]
		},
		{
			"name":"Circle.002",
			"primitives":[
				{
					"attributes":{
						"POSITION":19,
						"NORMAL":20,
						"TEXCOORD_0":21,
						"TANGENT":22
					},
					"indices":23,
					"material":2
				}
			]
		}
	],
	"textures":[
		{
			"sampler":0,
			"source":0
		}
	],
	"images":[
		{
			"mimeType":"image/png",
			"name":"Logo Black.png",
			"uri":"../../textures/Logo%20Black.png"
		}
	],
	"accessors":[
		{
			"bufferView":0,
			"componentType":5126,
			"count":180,
			"max":[
				0.4973771274089813,
				-0.01731671392917633,
				0.5
			],
			"min":[
				-0.5002472996711731,
				-0.13060370087623596,
				-0.5
			],
			"type":"VEC3"
		},
		{
			"bufferView":1,
			"componentType":5126,
			"count":180,
			"type":"VEC3"
		},
		{
			"bufferView":2,
			"componentType":5126,
			"count":180,
			"type":"VEC2"
		},
		{
			"bufferView":3,
			"componentType":5126,
			"count":180,
			"type":"VEC4"
		},
		{
			"bufferView":4,
			"componentType":5123,
			"count":486,
			"type":"SCALAR"
		},
		{
			"bufferView":5,
			"componentType":5126,
			"count":2611,
			"max":[
				1.0359841585159302,
				0.7064118981361389,
				1.1660809516906738
			],
			"min":[
				-1.0359842777252197,
				0.01722080260515213,
				-1.1660809516906738
			],
			"type":"VEC3"
		},
		{
			"bufferView":6,
			"componentType":5126,
			"count":2611,
			"type":"VEC3"
		},
		{
			"bufferView":7,
			"componentType":5126,
			"count":2611,
			"type":"VEC2"
		},
		{
			"bufferView":8,
			"componentType":5126,
			"count":2611,
			"type":"VEC4"
		},
		{
			"bufferView":9,
			"componentType":5123,
			"count":13824,
			"type":"SCALAR"
		},
		{
			"bufferView":10,
			"componentType":5126,
			"count":2112,
			"max":[
				1.0000001192092896,
				0.9622055888175964,
				1.5122183561325073
			],
			"min":[
				-1,
				-0.815253734588623,
				-1.0841792821884155
			],
			"type":"VEC3"
		},
		{
			"bufferView":11,
			"componentType":5126,
			"count":2112,
			"type":"VEC3"
		},
		{
			"bufferView":12,
			"componentType":5123,
			"count":12288,
			"type":"SCALAR"
		},
		{
			"bufferView":13,
			"componentType":5126,
			"count":4234,
			"max":[
				2.47796893119812,
				0.5166155695915222,
				0.9912332892417908
			],
			"min":[
				-0.008711895905435085,
				-0.39374417066574097,
				-1.008767008781433
			],
			"type":"VEC3"
		},
		{
			"bufferView":14,
			"componentType":5126,
			"count":4234,
			"type":"VEC3"
		},
		{
			"bufferView":15,
			"componentType":5123,
			"count":24576,
			"type":"SCALAR"
		},
		{
			"bufferView":16,
			"componentType":5126,
			"count":8980,
			"max":[
				2.47796893119812,
				0.5166152715682983,
				0.9912332892417908
			],
			"min":[
				-0.009269841015338898,
				-0.3937443792819977,
				-1.008767008781433
			],
			"type":"VEC3"
		},
		{
			"bufferView":17,
			"componentType":5126,
			"count":8980,
			"type":"VEC3"
		},
		{
			"bufferView":18,
			"componentType":5123,
			"count":50688,
			"type":"SCALAR"
		},
		{
			"bufferView":19,
			"componentType":5126,
			"count":15558,
			"max":[
				1.586301565170288,
				2.055474042892456,
				1.7882393598556519
			],
			"min":[
				-1.586301565170288,
				-0.08569054305553436,
				-1.788239598274231
			],
			"type":"VEC3"
		},
		{
			"bufferView":20,
			"componentType":5126,
			"count":15558,
			"type":"VEC3"
		},
		{
			"bufferView":21,
			"componentType":5126,
			"count":15558,
			"type":"VEC2"
		},
		{
			"bufferView":22,
			"componentType":5126,
			"count":15558,
			"type":"VEC4"
		},
		{
			"bufferView":23,
			"componentType":5123,
			"count":77568,
			"type":"SCALAR"
		}
	],
	"bufferViews":[
		{
			"buffer":0,
			"byteLength":2160,
			"byteOffset":0,
			"target":34962
		},
		{
			"buffer":0,
			"byteLength":2160,
			"byteOffset":2160,
			"target":34962
		},
		{
			"buffer":0,
			"byteLength":1440,
			"byteOffset":4320,
			"target":34962
		},
		{
			"buffer":0,
			"byteLength":2880,
			"byteOffset":5760,
			"target":34962
		},
		{
			"buffer":0,
			"byteLength":972,
			"byteOffset":8640,
			"target":34963
		},
		{
			"buffer":0,
			"byteLength":31332,
			"byteOffset":9612,
			"target":34962
		},
		{
			"buffer":0,
			"byteLength":31332,
			"byteOffset":40944,
			"target":34962
		},
		{
			"buffer":0,
			"byteLength":20888,
			"byteOffset":72276,
			"target":34962
		},
		{
			"buffer":0,
			"byteLength":41776,
			"byteOffset":93164,
			"target":34962
		},
		{
			"buffer":0,
			"byteLength":27648,
			"byteOffset":134940,
			"target":34963
		},
		{
			"buffer":0,
			"byteLength":25344,
			"byteOffset":162588,
			"target":34962
		},
		{
			"buffer":0,
			"byteLength":25344,
			"byteOffset":187932,
			"target":34962
		},
		{
			"buffer":0,
			"byteLength":24576,
			"byteOffset":213276,
			"target":34963
		},
		{
			"buffer":0,
			"byteLength":50808,
			"byteOffset":237852,
			"target":34962
		},
		{
			"buffer":0,
			"byteLength":50808,
			"byteOffset":288660,
			"target":34962
		},
		{
			"buffer":0,
			"byteLength":49152,
			"byteOffset":339468,
			"target":34963
		},
		{
			"buffer":0,
			"byteLength":107760,
			"byteOffset":388620,
			"target":34962
		},
		{
			"buffer":0,
			"byteLength":107760,
			"byteOffset":496380,
			"target":34962
		},
		{
			"buffer":0,
			"byteLength":101376,
			"byteOffset":604140,
			"target":34963
		},
		{
			"buffer":0,
			"byteLength":186696,
			"byteOffset":705516,
			"target":34962
		},
		{
			"buffer":0,
			"byteLength":186696,
			"byteOffset":892212,
			"target":34962
		},
		{
			"buffer":0,
			"byteLength":124464,
			"byteOffset":1078908,
			"target":34962
		},
		{
			"buffer":0,
			"byteLength":248928,
			"byteOffset":1203372,
			"target":34962
		},
		{
			"buffer":0,
			"byteLength":155136,
			"byteOffset":1452300,
			"target":34963
		}
	],
	"samplers":[
		{
			"magFilter":9729,
			"minFilter":9987,
			"wrapS":33071,
			"wrapT":33071
		}
	],
	"buffers":[
		{
			"byteLength":1607436,
			"uri":"temp-98aa64370c479c966d429e9e8ca7237f.bin"
		}
	]
}
